<?xml version="1.0" encoding="UTF-8"?>
<svg id="Topography" xmlns="http://www.w3.org/2000/svg" viewBox="0 0 1009.65 183.65">
  <defs>
    <style>
      .cls-1 {
        fill: #0f1d3a;
      }

      .cls-2 {
        fill: #14b8a6;
      }
    </style>
  </defs>
  <path class="cls-2" d="M13.25,144.92c-4.21,0-7.47-1.19-9.78-3.57-2.31-2.38-3.46-5.67-3.46-9.89V13.86C0,9.51,1.12,6.22,3.36,3.97,5.6,1.73,8.83.61,13.04.61s7.44,1.12,9.68,3.36c2.24,2.24,3.36,5.54,3.36,9.89v108.84h59.11c3.67,0,6.49.95,8.46,2.85,1.97,1.9,2.95,4.62,2.95,8.15s-.99,6.29-2.95,8.26c-1.97,1.97-4.79,2.96-8.46,2.96H13.25ZM197.82,121.89c-1.3-1.35-3.03-2.14-5.2-2.34-2.18-.21-4.69.51-7.54,2.14-3.94,2.17-8.12,3.7-12.54,4.58-4.41.89-8.39,1.33-11.92,1.33-10.19,0-17.91-2.75-23.14-8.26-4.15-4.37-6.65-10.51-7.5-18.44h61.62c3.12,0,5.54-.65,7.24-1.94,1.69-1.29,2.54-3.16,2.54-5.6,0-7.75-1.05-14.71-3.16-20.9-2.1-6.18-5.16-11.44-9.17-15.79-4.01-4.35-8.83-7.68-14.47-9.99-5.64-2.31-11.99-3.46-19.06-3.46-9.65,0-18.24,2.21-25.78,6.62-7.54,4.42-13.45,10.5-17.73,18.24-4.28,7.75-6.43,16.79-6.43,27.11s2.21,19.77,6.63,27.52c4.41,7.74,10.7,13.72,18.85,17.93,8.16,4.22,17.87,6.32,29.15,6.32,5.3,0,11.04-.71,17.22-2.14,6.19-1.42,11.65-3.63,16.41-6.62,2.45-1.5,4.18-3.26,5.2-5.3s1.39-4.04,1.12-6.01c-.27-1.97-1.05-3.64-2.34-5ZM132.8,75.73c2.1-4.83,5.16-8.57,9.17-11.21,4-2.65,8.86-3.98,14.57-3.98,5.16,0,9.48,1.12,12.94,3.36,3.47,2.25,6.12,5.47,7.95,9.69,1.53,3.5,2.43,7.71,2.68,12.63h-50.07c.48-3.88,1.4-7.38,2.76-10.49ZM314.91,46.88c-2.17-2.17-5.3-3.26-9.37-3.26s-7.03,1.09-9.28,3.26c-2.24,2.18-3.36,5.37-3.36,9.58v4.17c-2.25-4.44-5.68-8.17-10.29-11.2-6.32-4.14-13.69-6.21-22.12-6.21-6.66,0-12.74,1.19-18.24,3.56-5.5,2.38-10.19,5.74-14.06,10.09-3.88,4.35-6.87,9.55-8.97,15.59-2.11,6.05-3.16,12.81-3.16,20.28,0,9.93,1.83,18.62,5.5,26.09,3.67,7.48,8.83,13.29,15.49,17.43,6.66,4.15,14.47,6.22,23.44,6.22,8.16,0,15.46-2.07,21.91-6.22,4.93-3.16,8.56-7.13,10.91-11.91v13.64c0,8.7-2.28,15.26-6.83,19.67-4.55,4.42-11.38,6.63-20.48,6.63-3.81,0-8.4-.44-13.76-1.33-5.37-.88-11.04-2.82-17.02-5.81-2.04-1.09-4.01-1.36-5.91-.81-1.91.54-3.5,1.56-4.79,3.06-1.3,1.49-2.11,3.22-2.45,5.19-.34,1.97-.07,3.91.82,5.81.88,1.9,2.61,3.54,5.19,4.89,5.57,2.86,11.79,4.96,18.65,6.32,6.86,1.36,13.97,2.04,21.3,2.04,16.31,0,28.74-4.07,37.3-12.23,8.57-8.15,12.84-20.31,12.84-36.48V56.46c0-4.21-1.08-7.4-3.26-9.58ZM289.94,108.95c-2.1,4.55-5.06,8.05-8.86,10.5-3.81,2.44-8.36,3.67-13.66,3.67-7.88,0-14.13-2.72-18.75-8.16-4.62-5.43-6.93-12.84-6.93-22.22,0-6.24,1.05-11.61,3.16-16.1,2.1-4.48,5.06-7.95,8.87-10.39,3.8-2.45,8.35-3.67,13.65-3.67,7.88,0,14.13,2.68,18.75,8.05,4.62,5.37,6.93,12.74,6.93,22.11,0,6.26-1.05,11.66-3.16,16.21ZM425.59,61.25c-3.13-6.04-7.85-10.56-14.17-13.55-6.31-2.99-14.37-4.48-24.15-4.48-4.76,0-10.02.54-15.8,1.63-5.77,1.08-11.79,2.92-18.03,5.5-2.59.95-4.42,2.41-5.51,4.38-1.09,1.97-1.63,3.98-1.63,6.01s.54,3.91,1.63,5.61c1.09,1.7,2.62,2.82,4.59,3.36,1.97.55,4.24.21,6.83-1.02,5.02-2.31,9.81-3.94,14.37-4.89,4.55-.95,8.79-1.43,12.73-1.43,7.07,0,12.1,1.5,15.09,4.49,2.99,2.99,4.48,7.88,4.48,14.67v4.28h-7.13c-14.41,0-25.89.96-34.45,2.86s-14.74,4.99-18.55,9.27c-3.8,4.28-5.7,10.09-5.7,17.43,0,5.98,1.59,11.35,4.79,16.1,3.19,4.76,7.6,8.53,13.24,11.31,5.64,2.79,12.06,4.18,19.27,4.18,5.43,0,10.25-.95,14.47-2.85,4.21-1.9,7.71-4.59,10.5-8.05,1.64-2.05,2.97-4.32,3.97-6.83v4.28c0,4.21,1.05,7.44,3.16,9.68,2.1,2.24,5.06,3.37,8.87,3.37s6.72-1.13,8.76-3.37,3.06-5.47,3.06-9.68v-48.92c0-9.51-1.57-17.29-4.69-23.34ZM406.02,104.97c0,4.76-1.02,8.97-3.06,12.64-2.03,3.67-4.79,6.56-8.25,8.66-3.47,2.11-7.44,3.16-11.92,3.16-5.58,0-9.93-1.42-13.05-4.28-3.13-2.85-4.69-6.52-4.69-11,0-3.53,1.05-6.29,3.16-8.26,2.11-1.97,5.67-3.36,10.7-4.18,5.03-.81,11.76-1.22,20.18-1.22h6.93v4.48ZM502.22,146.96c-10.47,0-19.57-2.14-27.31-6.42-7.75-4.28-13.73-10.36-17.94-18.24-4.21-7.88-6.32-17.12-6.32-27.72,0-8.02,1.19-15.19,3.57-21.5,2.38-6.32,5.81-11.68,10.29-16.1,4.48-4.41,9.92-7.81,16.31-10.19,6.39-2.38,13.52-3.57,21.4-3.57,4.48,0,9.34.61,14.57,1.83,5.23,1.22,10.16,3.26,14.78,6.12,2.17,1.36,3.6,2.99,4.28,4.89.68,1.9.81,3.84.41,5.81-.41,1.97-1.26,3.67-2.55,5.1-1.29,1.43-2.89,2.31-4.79,2.65-1.9.34-4.01-.1-6.32-1.33-2.99-1.76-6.05-3.09-9.17-3.97-3.13-.88-6.12-1.32-8.97-1.32-4.48,0-8.43.71-11.82,2.14-3.4,1.43-6.29,3.47-8.66,6.12-2.38,2.65-4.18,5.95-5.4,9.89-1.22,3.94-1.83,8.49-1.83,13.66,0,10.06,2.41,17.97,7.24,23.75,4.82,5.78,11.65,8.66,20.49,8.66,2.85,0,5.81-.41,8.87-1.22,3.06-.81,6.15-2.1,9.27-3.87,2.31-1.22,4.38-1.63,6.22-1.22,1.83.41,3.36,1.33,4.59,2.75,1.22,1.43,1.97,3.13,2.24,5.1.27,1.97.03,3.91-.71,5.81-.75,1.9-2.14,3.47-4.18,4.69-4.48,2.72-9.24,4.69-14.27,5.91-5.03,1.22-9.78,1.83-14.27,1.83ZM643.88,52.08c-.4-2.51-1.49-4.55-3.26-6.11-1.77-1.56-4.14-2.35-7.13-2.35-3.4,0-6.12.72-8.15,2.14-2.04,1.43-3.81,4.05-5.31,7.85l-25.04,61.33-24.48-61.13c-1.5-3.94-3.2-6.62-5.1-8.05-1.91-1.42-4.42-2.14-7.54-2.14-3.67,0-6.56.79-8.66,2.35-2.11,1.56-3.37,3.63-3.78,6.21-.4,2.59,0,5.37,1.23,8.36l34.75,80.4-11.52,25.59c-1.22,2.85-1.66,5.57-1.32,8.15.34,2.58,1.46,4.66,3.36,6.22,1.9,1.56,4.35,2.34,7.34,2.34,3.26,0,5.91-.68,7.95-2.03,2.04-1.36,3.94-3.95,5.71-7.75l49.53-113.12c1.35-2.99,1.83-5.74,1.42-8.26Z"/>
  <g>
    <path class="cls-1" d="M673.03,144.92c-1.9,0-3.43-.58-4.59-1.73-1.16-1.15-1.73-2.75-1.73-4.79V6.73c0-2.17.54-3.8,1.63-4.89s2.58-1.63,4.48-1.63c2.04,0,3.6.54,4.69,1.63,1.09,1.09,1.63,2.72,1.63,4.89v126.98h70.12c2.04,0,3.57.48,4.59,1.43,1.02.95,1.53,2.31,1.53,4.08,0,1.9-.51,3.33-1.53,4.28-1.02.95-2.55,1.43-4.59,1.43h-76.23Z"/>
    <path class="cls-1" d="M779.63,20.59c-2.85,0-5.06-.75-6.63-2.24-1.56-1.49-2.34-3.6-2.34-6.32s.78-4.79,2.34-6.22c1.56-1.43,3.77-2.14,6.63-2.14s5.06.71,6.62,2.14c1.56,1.43,2.34,3.5,2.34,6.22s-.78,4.82-2.34,6.32c-1.56,1.5-3.77,2.24-6.62,2.24ZM779.63,145.74c-2.04,0-3.6-.61-4.69-1.83-1.09-1.22-1.63-2.85-1.63-4.89V51.77c0-2.17.54-3.8,1.63-4.89s2.65-1.63,4.69-1.63c1.9,0,3.39.54,4.48,1.63,1.09,1.09,1.63,2.72,1.63,4.89v87.24c0,2.04-.51,3.67-1.53,4.89-1.02,1.22-2.55,1.83-4.59,1.83Z"/>
    <path class="cls-1" d="M824.87,146.14c-2.04,0-3.6-.54-4.69-1.63-1.09-1.09-1.63-2.65-1.63-4.69V51.16c0-2.17.54-3.8,1.63-4.89s2.65-1.63,4.69-1.63c1.9,0,3.36.54,4.38,1.63,1.02,1.09,1.53,2.72,1.53,4.89v19.16l-2.24-1.22c2.72-8.15,7.37-14.33,13.96-18.55,6.59-4.21,14.17-6.32,22.73-6.32,7.88,0,14.44,1.4,19.67,4.18,5.23,2.79,9.14,7.03,11.72,12.74,2.58,5.71,3.87,12.84,3.87,21.4v57.28c0,2.04-.54,3.6-1.63,4.69-1.09,1.09-2.58,1.63-4.48,1.63-2.04,0-3.6-.54-4.69-1.63-1.09-1.09-1.63-2.65-1.63-4.69v-56.26c0-9.92-1.97-17.15-5.91-21.71-3.94-4.55-10.19-6.83-18.75-6.83-9.78,0-17.63,3.03-23.54,9.07-5.91,6.05-8.87,14.17-8.87,24.36v51.36c0,4.21-2.04,6.32-6.11,6.32Z"/>
    <path class="cls-1" d="M939.01,146.14c-2.04,0-3.6-.54-4.69-1.63-1.09-1.09-1.63-2.65-1.63-4.69V6.32c0-2.17.54-3.77,1.63-4.79,1.09-1.02,2.65-1.53,4.69-1.53,1.9,0,3.39.51,4.48,1.53,1.09,1.02,1.63,2.62,1.63,4.79v84.59h.41l45.66-41.78c1.49-1.36,2.82-2.45,3.98-3.26,1.15-.82,2.68-1.22,4.59-1.22,1.63,0,2.92.48,3.87,1.43.95.95,1.39,2.07,1.32,3.36-.07,1.29-.78,2.68-2.14,4.18l-48.51,44.23v-7.95l52.79,46.88c1.63,1.5,2.48,2.96,2.55,4.38.07,1.43-.37,2.62-1.32,3.57-.95.95-2.24,1.43-3.87,1.43-1.77,0-3.26-.38-4.48-1.12s-2.72-1.94-4.48-3.57l-49.94-44.03h-.41v42.4c0,4.21-2.04,6.32-6.11,6.32Z"/>
  </g>
</svg>