<?xml version="1.0" encoding="UTF-8"?>
<svg id="Layer_2" data-name="Layer 2" xmlns="http://www.w3.org/2000/svg" viewBox="0 0 450.97 79.69">
  <defs>
    <style>
      .cls-1 {
        fill: #f5f2e8;
      }

      .cls-2 {
        fill: #0a264f;
      }
    </style>
  </defs>
  <g id="Layer_1-2" data-name="Layer 1">
    <g>
      <path class="cls-1" d="M8.29,62.76c-2.64,0-4.69-.72-6.13-2.16-1.44-1.44-2.16-3.48-2.16-6.13V8.73c0-2.64.71-4.67,2.12-6.08C3.53,1.23,5.55.53,8.2.53s4.5.71,5.91,2.12c1.41,1.41,2.12,3.44,2.12,6.08v40.55h21.6c2.23,0,3.94.57,5.11,1.72,1.17,1.15,1.76,2.81,1.76,4.98s-.59,3.85-1.76,5.02c-1.18,1.18-2.88,1.76-5.11,1.76H8.29Z"/>
      <path class="cls-1" d="M73.69,63.82c-5.29,0-9.86-.94-13.71-2.82-3.85-1.88-6.8-4.52-8.86-7.93-2.06-3.41-3.09-7.4-3.09-11.99s.98-8.4,2.95-11.81c1.97-3.41,4.67-6.08,8.11-8.02,3.44-1.94,7.36-2.91,11.77-2.91,3.23,0,6.17.53,8.81,1.59,2.64,1.06,4.89,2.57,6.74,4.54,1.85,1.97,3.28,4.33,4.28,7.1,1,2.76,1.5,5.88,1.5,9.34,0,1.12-.32,1.97-.97,2.56-.65.59-1.65.88-3,.88h-27.06v-7.49h19.48l-1.32,1.15c0-2.17-.29-3.95-.88-5.33-.59-1.38-1.45-2.41-2.6-3.09-1.15-.67-2.57-1.01-4.28-1.01-1.82,0-3.41.43-4.76,1.28-1.35.85-2.37,2.1-3.04,3.75-.68,1.65-1.01,3.7-1.01,6.17v.7c0,4.23.93,7.23,2.78,8.99,1.85,1.76,4.72,2.64,8.59,2.64,1.29,0,2.78-.15,4.45-.44,1.67-.29,3.28-.73,4.8-1.32,1.53-.59,2.85-.69,3.97-.31,1.12.38,1.98,1.01,2.6,1.89.62.88.97,1.93,1.06,3.13.09,1.21-.18,2.34-.79,3.39s-1.63,1.88-3.04,2.47c-2,.94-4.16,1.66-6.48,2.16-2.32.5-4.66.75-7.01.75Z"/>
      <path class="cls-1" d="M120.41,79.69c-3.17,0-6.17-.25-8.99-.75-2.82-.5-5.26-1.16-7.32-1.98-1.65-.53-2.84-1.35-3.57-2.47-.74-1.12-1.09-2.28-1.06-3.48.03-1.21.37-2.32,1.01-3.35.65-1.03,1.5-1.76,2.56-2.2s2.2-.43,3.44.04c2.59,1.06,4.95,1.73,7.1,2.03,2.14.29,3.92.44,5.33.44,3.64,0,6.36-.74,8.15-2.2,1.79-1.47,2.69-3.82,2.69-7.05v-5.47h.79c-.94,2.47-2.76,4.5-5.47,6.08-2.7,1.59-5.64,2.38-8.81,2.38-3.88,0-7.26-.9-10.14-2.69-2.88-1.79-5.13-4.33-6.74-7.62-1.62-3.29-2.42-7.05-2.42-11.28,0-3.35.47-6.35,1.41-8.99.94-2.64,2.25-4.92,3.92-6.83,1.67-1.91,3.69-3.38,6.04-4.41,2.35-1.03,4.99-1.54,7.93-1.54,3.29,0,6.26.78,8.9,2.34,2.64,1.56,4.38,3.57,5.2,6.04l-.79,3.61v-3.88c0-2.53.67-4.48,2.03-5.86,1.35-1.38,3.26-2.07,5.73-2.07s4.38.69,5.73,2.07c1.35,1.38,2.03,3.34,2.03,5.86v30.5c0,7.58-2.13,13.27-6.39,17.06-4.26,3.79-10.36,5.69-18.29,5.69ZM121.12,50.07c1.76,0,3.28-.41,4.54-1.23,1.26-.82,2.23-1.97,2.91-3.44.67-1.47,1.01-3.23,1.01-5.29,0-3.23-.78-5.73-2.34-7.49-1.56-1.76-3.6-2.64-6.13-2.64-1.71,0-3.17.4-4.41,1.19-1.23.79-2.2,1.93-2.91,3.39-.71,1.47-1.06,3.32-1.06,5.55,0,3.12.76,5.55,2.29,7.32,1.53,1.76,3.55,2.64,6.08,2.64Z"/>
      <path class="cls-1" d="M169.25,63.82c-3.35,0-6.32-.63-8.9-1.9-2.59-1.26-4.6-2.97-6.04-5.11-1.44-2.14-2.16-4.6-2.16-7.36,0-3.17.82-5.67,2.47-7.49,1.64-1.82,4.3-3.13,7.98-3.92,3.67-.79,8.54-1.19,14.59-1.19h4.85v7.32h-4.85c-2.29,0-4.17.18-5.64.53-1.47.35-2.56.85-3.26,1.5-.71.65-1.06,1.53-1.06,2.64,0,1.35.47,2.47,1.41,3.35.94.88,2.35,1.32,4.23,1.32,1.41,0,2.69-.32,3.83-.97,1.15-.65,2.07-1.54,2.78-2.69.71-1.15,1.06-2.48,1.06-4.01v-10.23c0-2.17-.54-3.69-1.63-4.54-1.09-.85-2.92-1.28-5.51-1.28-1.47,0-3.07.16-4.8.48-1.73.32-3.72.9-5.95,1.72-1.59.59-2.95.68-4.1.26-1.15-.41-2-1.1-2.56-2.07-.56-.97-.84-2.04-.84-3.22s.37-2.32,1.1-3.44c.73-1.12,1.86-1.94,3.39-2.47,2.82-1,5.43-1.7,7.85-2.12,2.41-.41,4.58-.62,6.52-.62,4.82,0,8.8.71,11.94,2.12,3.14,1.41,5.49,3.54,7.05,6.39,1.56,2.85,2.34,6.51,2.34,10.97v17.89c0,2.53-.63,4.48-1.9,5.86-1.26,1.38-3.04,2.07-5.33,2.07-2.41,0-4.25-.69-5.51-2.07-1.26-1.38-1.9-3.33-1.9-5.86v-2.38l.53,1.23c-.29,1.82-.97,3.42-2.03,4.8-1.06,1.38-2.44,2.47-4.14,3.26-1.71.79-3.64,1.19-5.82,1.19Z"/>
      <path class="cls-1" d="M226.37,63.82c-4.88,0-9.12-.93-12.74-2.78-3.61-1.85-6.42-4.5-8.42-7.93-2-3.44-3-7.48-3-12.12,0-3.53.56-6.68,1.67-9.48,1.12-2.79,2.75-5.16,4.89-7.1,2.14-1.94,4.7-3.44,7.67-4.5,2.97-1.06,6.27-1.59,9.92-1.59,1.7,0,3.5.18,5.38.53,1.88.35,3.82.97,5.82,1.85,1.41.53,2.39,1.34,2.95,2.42.56,1.09.81,2.25.75,3.48-.06,1.23-.43,2.34-1.1,3.31-.68.97-1.54,1.65-2.6,2.03-1.06.38-2.26.28-3.61-.31-.94-.53-1.93-.91-2.95-1.15-1.03-.23-2.04-.35-3.04-.35-1.53,0-2.9.25-4.1.75-1.21.5-2.22,1.22-3.04,2.16-.82.94-1.45,2.07-1.9,3.39s-.66,2.86-.66,4.63c0,3.35.85,5.99,2.56,7.93,1.7,1.94,4.08,2.91,7.14,2.91,1,0,2.01-.1,3.04-.31,1.03-.21,2.01-.54,2.95-1.01,1.35-.65,2.56-.78,3.61-.4,1.06.38,1.91,1.06,2.56,2.03.65.97.98,2.09,1.01,3.35.03,1.26-.24,2.44-.79,3.53-.56,1.09-1.54,1.87-2.95,2.34-1.94.88-3.83,1.5-5.69,1.85-1.85.35-3.63.53-5.33.53Z"/>
      <path class="cls-1" d="M260.48,79.51c-1.71,0-3.13-.49-4.28-1.45-1.15-.97-1.85-2.22-2.12-3.75-.26-1.53-.02-3.14.75-4.85l5.91-12.78v6.35l-15.07-34.47c-.76-1.82-1.01-3.48-.75-4.98.26-1.5,1.04-2.72,2.34-3.66,1.29-.94,3.05-1.41,5.29-1.41,1.88,0,3.38.44,4.5,1.32,1.12.88,2.17,2.56,3.17,5.02l8.81,22.92h-3l9.34-23.01c.94-2.41,2.01-4.05,3.22-4.94,1.2-.88,2.83-1.32,4.89-1.32,1.76,0,3.17.47,4.23,1.41,1.06.94,1.72,2.16,1.98,3.66.26,1.5-.04,3.16-.93,4.98l-19.92,44.96c-1,2.29-2.16,3.86-3.48,4.72-1.32.85-2.95,1.28-4.89,1.28Z"/>
      <path class="cls-2" d="M302.44,62.76c-1.18,0-2.09-.34-2.73-1.01-.65-.67-.97-1.6-.97-2.78V3.97c0-1.23.31-2.17.93-2.82.62-.65,1.51-.97,2.69-.97s2.07.32,2.69.97c.62.65.93,1.59.93,2.82v52.45h28.91c1.06,0,1.88.28,2.47.84.59.56.88,1.34.88,2.34s-.29,1.78-.88,2.34c-.59.56-1.41.84-2.47.84h-32.44Z"/>
      <path class="cls-2" d="M349.15,9.61c-1.47,0-2.62-.4-3.44-1.19-.82-.79-1.23-1.86-1.23-3.22s.41-2.48,1.23-3.22c.82-.73,1.97-1.1,3.44-1.1s2.69.37,3.48,1.1c.79.74,1.19,1.81,1.19,3.22s-.4,2.42-1.19,3.22-1.95,1.19-3.48,1.19ZM349.15,63.2c-1.18,0-2.06-.34-2.64-1.01-.59-.67-.88-1.63-.88-2.87V23.27c0-1.23.29-2.17.88-2.82.59-.65,1.47-.97,2.64-.97,1.12,0,2,.32,2.64.97.65.65.97,1.59.97,2.82v36.05c0,1.23-.31,2.19-.93,2.87-.62.67-1.51,1.01-2.69,1.01Z"/>
      <path class="cls-2" d="M369.61,63.38c-1.18,0-2.06-.32-2.64-.97-.59-.65-.88-1.56-.88-2.73V22.92c0-1.17.29-2.07.88-2.69.59-.62,1.44-.93,2.56-.93s1.98.31,2.6.93c.62.62.93,1.51.93,2.69v7.58l-.97-1.06c1.23-3.41,3.25-5.98,6.04-7.71,2.79-1.73,6.01-2.6,9.65-2.6,3.41,0,6.24.62,8.51,1.85,2.26,1.23,3.95,3.1,5.07,5.6,1.12,2.5,1.67,5.66,1.67,9.48v23.62c0,1.18-.31,2.09-.93,2.73s-1.48.97-2.6.97c-1.18,0-2.07-.32-2.69-.97s-.93-1.56-.93-2.73v-23.18c0-4-.78-6.92-2.34-8.77-1.56-1.85-4.04-2.78-7.45-2.78-3.94,0-7.07,1.22-9.39,3.66-2.32,2.44-3.48,5.69-3.48,9.74v21.33c0,2.47-1.21,3.7-3.61,3.7Z"/>
      <path class="cls-2" d="M419.67,63.38c-1.18,0-2.06-.32-2.64-.97-.59-.65-.88-1.56-.88-2.73V3.61c0-1.17.29-2.07.88-2.69.59-.62,1.47-.93,2.64-.93,1.12,0,2,.31,2.64.93.65.62.97,1.51.97,2.69v35.35h.18l18.07-17.28c.82-.76,1.54-1.35,2.16-1.76.62-.41,1.45-.62,2.51-.62.94,0,1.67.25,2.2.75.53.5.78,1.12.75,1.85-.03.74-.4,1.51-1.1,2.34l-19.22,18.25v-3.88l20.89,19.66c.82.82,1.23,1.62,1.23,2.38s-.28,1.41-.84,1.94c-.56.53-1.28.79-2.16.79-1.06,0-1.91-.22-2.56-.66-.65-.44-1.44-1.1-2.38-1.98l-19.57-18.07h-.18v17.01c0,2.47-1.21,3.7-3.61,3.7Z"/>
    </g>
  </g>
</svg>