<?xml version="1.0" encoding="UTF-8"?>
<svg id="Topography" xmlns="http://www.w3.org/2000/svg" viewBox="0 0 1290.66 707.57">
  <defs>
    <style>
      .cls-1 {
        fill: #4daaf5;
      }

      .cls-2 {
        fill: #78c8ff;
      }
    </style>
  </defs>
  <g>
    <path class="cls-2" d="M783.9,187.38L959.19,12.09c20.88-20.88,56.29-13.68,67.36,13.68l48.05,118.7c3.04,7.51,8.23,13.96,14.91,18.54l179.53,123.01c24.48,16.77,23.75,53.13-1.37,68.92l-226.62,126.43-199.54,208.5c-21.91,20.82-58.03,11.77-67.53-16.92l-57.5-173.55c-2.66-8.03-7.73-15.05-14.51-20.1l-141.46-105.32c-24.32-18.11-21.43-55.38,5.39-69.53l208.1-109.77c3.65-1.93,7-4.39,9.92-7.31Z"/>
    <path class="cls-1" d="M776.84,681.6c11.53,3.76,20.98,3.66,28.55,2.02,50.16-10.91,54.83-98.05,112.15-198.18,18.58-32.47,38.11-58.27,54.36-77.44,4.37-5.16,10.13-8.89,16.65-10.7,67.15-18.62,134.3-37.25,201.45-55.88,30.64-8.5,36.74-49.28,9.92-66.36l-134.74-85.87c-7.7-4.91-12.98-12.84-14.53-21.84l-24.63-142.95,53.26,131.58,195.43,133.91c21.81,14.94,21.16,47.34-1.22,61.4l-228.99,128.15c-2.28,1.27-4.35,2.88-6.16,4.76l-203.41,211.94c-18.84,17.9-49.89,10.12-58.07-14.55h0Z"/>
    <ellipse class="cls-2" cx="920.36" cy="549.35" rx="42.9" ry="11.67" transform="translate(55.25 1182.13) rotate(-67.02)"/>
    <ellipse class="cls-2" cx="1096.36" cy="395.33" rx="42.9" ry="11.67" transform="translate(-68.48 357.39) rotate(-17.96)"/>
    <path class="cls-1" d="M594.62,399.39s62.53-7.89,108.19,13.34c3.67,1.71,2.23,7.21-1.82,7.06-18.29-.69-42.82,3.66-32.87,34.33l-73.51-54.73Z"/>
  </g>
  <path class="cls-2" d="M205.13,226.86l31.89,66.08c15.84,32.82,42.33,59.3,75.14,75.14l66.08,31.89c10.2,4.92,10.2,19.44,0,24.36l-66.08,31.89c-32.82,15.84-59.3,42.33-75.14,75.14l-31.89,66.08c-4.92,10.2-19.44,10.2-24.36,0l-31.89-66.08c-15.84-32.82-42.33-59.3-75.14-75.14l-66.08-31.89c-10.2-4.92-10.2-19.44,0-24.36l66.08-31.89c32.82-15.84,59.3-42.33,75.14-75.14l31.89-66.08c4.92-10.2,19.44-10.2,24.36,0Z"/>
</svg>